<mxfile host="app.diagrams.net" modified="2023-04-22T15:35:27.534Z" agent="Mozilla/5.0 (Windows NT 10.0; Win64; x64) AppleWebKit/537.36 (KHTML, like Gecko) Chrome/112.0.0.0 Safari/537.36" etag="tjkr7fJQuxcpfRZVE_Uu" version="21.2.1" type="github">
  <diagram name="Page-1" id="0783ab3e-0a74-02c8-0abd-f7b4e66b4bec">
    <mxGraphModel dx="1152" dy="620" grid="1" gridSize="10" guides="1" tooltips="1" connect="1" arrows="1" fold="1" page="1" pageScale="1" pageWidth="850" pageHeight="1100" background="none" math="0" shadow="0">
      <root>
        <mxCell id="0" />
        <mxCell id="1" parent="0" />
        <mxCell id="1c1d494c118603dd-1" value="Pool" style="swimlane;html=1;childLayout=stackLayout;startSize=20;rounded=0;shadow=0;comic=0;labelBackgroundColor=none;strokeWidth=1;fontFamily=Verdana;fontSize=12;align=center;" parent="1" vertex="1">
          <mxGeometry x="50" y="20" width="750" height="990" as="geometry" />
        </mxCell>
        <mxCell id="1c1d494c118603dd-2" value="Backend" style="swimlane;html=1;startSize=20;" parent="1c1d494c118603dd-1" vertex="1">
          <mxGeometry y="20" width="250" height="970" as="geometry" />
        </mxCell>
        <mxCell id="cfpsrHQYrtX307XhDK7B-18" value="&lt;br&gt;return game id and first question and options" style="html=1;whiteSpace=wrap;" vertex="1" parent="1c1d494c118603dd-2">
          <mxGeometry x="60" y="270" width="110" height="60" as="geometry" />
        </mxCell>
        <mxCell id="cfpsrHQYrtX307XhDK7B-25" value="Check if answer is correct and return bool yes or no" style="html=1;whiteSpace=wrap;" vertex="1" parent="1c1d494c118603dd-2">
          <mxGeometry x="60" y="340" width="110" height="50" as="geometry" />
        </mxCell>
        <mxCell id="cfpsrHQYrtX307XhDK7B-33" style="edgeStyle=orthogonalEdgeStyle;rounded=0;orthogonalLoop=1;jettySize=auto;html=1;exitX=0.5;exitY=1;exitDx=0;exitDy=0;entryX=0.5;entryY=0;entryDx=0;entryDy=0;" edge="1" parent="1c1d494c118603dd-2" source="cfpsrHQYrtX307XhDK7B-32" target="cfpsrHQYrtX307XhDK7B-18">
          <mxGeometry relative="1" as="geometry" />
        </mxCell>
        <mxCell id="cfpsrHQYrtX307XhDK7B-32" value="Create new game" style="html=1;whiteSpace=wrap;" vertex="1" parent="1c1d494c118603dd-2">
          <mxGeometry x="60" y="210" width="110" height="40" as="geometry" />
        </mxCell>
        <mxCell id="cfpsrHQYrtX307XhDK7B-36" value="Get categories and&amp;nbsp; return them" style="html=1;whiteSpace=wrap;" vertex="1" parent="1c1d494c118603dd-2">
          <mxGeometry x="60" y="30" width="110" height="50" as="geometry" />
        </mxCell>
        <mxCell id="cfpsrHQYrtX307XhDK7B-38" value="get question set from API" style="html=1;whiteSpace=wrap;" vertex="1" parent="1c1d494c118603dd-2">
          <mxGeometry x="60" y="130" width="110" height="50" as="geometry" />
        </mxCell>
        <mxCell id="cfpsrHQYrtX307XhDK7B-50" value="Send points and amount of right and wrong answers" style="html=1;whiteSpace=wrap;" vertex="1" parent="1c1d494c118603dd-2">
          <mxGeometry x="60" y="440" width="110" height="50" as="geometry" />
        </mxCell>
        <mxCell id="cfpsrHQYrtX307XhDK7B-15" style="edgeStyle=orthogonalEdgeStyle;rounded=0;orthogonalLoop=1;jettySize=auto;html=1;" edge="1" parent="1c1d494c118603dd-1" source="cfpsrHQYrtX307XhDK7B-14">
          <mxGeometry relative="1" as="geometry">
            <mxPoint x="170" y="170" as="targetPoint" />
            <Array as="points">
              <mxPoint x="265" y="125" />
              <mxPoint x="265" y="170" />
            </Array>
          </mxGeometry>
        </mxCell>
        <mxCell id="cfpsrHQYrtX307XhDK7B-17" style="edgeStyle=orthogonalEdgeStyle;rounded=0;orthogonalLoop=1;jettySize=auto;html=1;exitX=1;exitY=0.75;exitDx=0;exitDy=0;entryX=0;entryY=0.25;entryDx=0;entryDy=0;" edge="1" parent="1c1d494c118603dd-1" target="cfpsrHQYrtX307XhDK7B-16">
          <mxGeometry relative="1" as="geometry">
            <mxPoint x="170" y="197.5" as="sourcePoint" />
            <mxPoint x="250" y="280" as="targetPoint" />
            <Array as="points">
              <mxPoint x="170" y="190" />
              <mxPoint x="260" y="190" />
              <mxPoint x="260" y="255" />
            </Array>
          </mxGeometry>
        </mxCell>
        <mxCell id="cfpsrHQYrtX307XhDK7B-24" style="edgeStyle=orthogonalEdgeStyle;rounded=0;orthogonalLoop=1;jettySize=auto;html=1;exitX=1;exitY=0.75;exitDx=0;exitDy=0;entryX=0;entryY=0.25;entryDx=0;entryDy=0;" edge="1" parent="1c1d494c118603dd-1" source="cfpsrHQYrtX307XhDK7B-18" target="cfpsrHQYrtX307XhDK7B-23">
          <mxGeometry relative="1" as="geometry" />
        </mxCell>
        <mxCell id="cfpsrHQYrtX307XhDK7B-27" style="edgeStyle=orthogonalEdgeStyle;rounded=0;orthogonalLoop=1;jettySize=auto;html=1;exitX=0;exitY=0.75;exitDx=0;exitDy=0;entryX=1;entryY=0.25;entryDx=0;entryDy=0;" edge="1" parent="1c1d494c118603dd-1" source="cfpsrHQYrtX307XhDK7B-23" target="cfpsrHQYrtX307XhDK7B-25">
          <mxGeometry relative="1" as="geometry" />
        </mxCell>
        <mxCell id="cfpsrHQYrtX307XhDK7B-28" style="edgeStyle=orthogonalEdgeStyle;rounded=0;orthogonalLoop=1;jettySize=auto;html=1;exitX=1;exitY=0.75;exitDx=0;exitDy=0;entryX=0;entryY=0.25;entryDx=0;entryDy=0;" edge="1" parent="1c1d494c118603dd-1" source="cfpsrHQYrtX307XhDK7B-25" target="cfpsrHQYrtX307XhDK7B-26">
          <mxGeometry relative="1" as="geometry" />
        </mxCell>
        <mxCell id="cfpsrHQYrtX307XhDK7B-35" style="edgeStyle=orthogonalEdgeStyle;rounded=0;orthogonalLoop=1;jettySize=auto;html=1;entryX=1;entryY=0.75;entryDx=0;entryDy=0;" edge="1" parent="1c1d494c118603dd-1" source="cfpsrHQYrtX307XhDK7B-16" target="cfpsrHQYrtX307XhDK7B-32">
          <mxGeometry relative="1" as="geometry" />
        </mxCell>
        <mxCell id="cfpsrHQYrtX307XhDK7B-37" style="edgeStyle=orthogonalEdgeStyle;rounded=0;orthogonalLoop=1;jettySize=auto;html=1;entryX=0.5;entryY=0;entryDx=0;entryDy=0;" edge="1" parent="1c1d494c118603dd-1" source="cfpsrHQYrtX307XhDK7B-36" target="cfpsrHQYrtX307XhDK7B-14">
          <mxGeometry relative="1" as="geometry" />
        </mxCell>
        <mxCell id="1c1d494c118603dd-4" value="Frontend" style="swimlane;html=1;startSize=20;" parent="1c1d494c118603dd-1" vertex="1">
          <mxGeometry x="250" y="20" width="250" height="970" as="geometry" />
        </mxCell>
        <mxCell id="cfpsrHQYrtX307XhDK7B-14" value="ShowCategory and Difficulty.&lt;br&gt;send choices to backend" style="html=1;whiteSpace=wrap;" vertex="1" parent="1c1d494c118603dd-4">
          <mxGeometry x="110" y="70" width="110" height="70" as="geometry" />
        </mxCell>
        <mxCell id="cfpsrHQYrtX307XhDK7B-16" value="Return playerChoices" style="html=1;whiteSpace=wrap;" vertex="1" parent="1c1d494c118603dd-4">
          <mxGeometry x="100" y="220" width="110" height="60" as="geometry" />
        </mxCell>
        <mxCell id="cfpsrHQYrtX307XhDK7B-23" value="Send players choice" style="html=1;whiteSpace=wrap;" vertex="1" parent="1c1d494c118603dd-4">
          <mxGeometry x="100" y="310" width="110" height="50" as="geometry" />
        </mxCell>
        <mxCell id="cfpsrHQYrtX307XhDK7B-48" style="edgeStyle=orthogonalEdgeStyle;rounded=0;orthogonalLoop=1;jettySize=auto;html=1;exitX=1;exitY=0.5;exitDx=0;exitDy=0;entryX=0;entryY=0;entryDx=0;entryDy=0;" edge="1" parent="1c1d494c118603dd-4" source="cfpsrHQYrtX307XhDK7B-26" target="cfpsrHQYrtX307XhDK7B-43">
          <mxGeometry relative="1" as="geometry" />
        </mxCell>
        <mxCell id="cfpsrHQYrtX307XhDK7B-26" value="Show result and get next question" style="html=1;whiteSpace=wrap;" vertex="1" parent="1c1d494c118603dd-4">
          <mxGeometry x="20" y="380" width="110" height="50" as="geometry" />
        </mxCell>
        <mxCell id="cfpsrHQYrtX307XhDK7B-43" value="Is there any questions left?" style="rhombus;whiteSpace=wrap;html=1;fontColor=#000000;fillColor=#ffffc0;strokeColor=#ff0000;" vertex="1" parent="1c1d494c118603dd-4">
          <mxGeometry x="140" y="400" width="110" height="60" as="geometry" />
        </mxCell>
        <mxCell id="cfpsrHQYrtX307XhDK7B-45" value="yes" style="edgeStyle=orthogonalEdgeStyle;html=1;align=left;verticalAlign=top;endArrow=open;endSize=8;strokeColor=#ff0000;rounded=0;entryX=0.75;entryY=1;entryDx=0;entryDy=0;" edge="1" source="cfpsrHQYrtX307XhDK7B-43" parent="1c1d494c118603dd-4" target="cfpsrHQYrtX307XhDK7B-23">
          <mxGeometry x="1" relative="1" as="geometry">
            <mxPoint x="180" y="480" as="targetPoint" />
            <mxPoint as="offset" />
          </mxGeometry>
        </mxCell>
        <mxCell id="cfpsrHQYrtX307XhDK7B-52" value="NO" style="text;html=1;align=center;verticalAlign=middle;resizable=0;points=[];autosize=1;strokeColor=none;fillColor=none;" vertex="1" parent="1c1d494c118603dd-4">
          <mxGeometry x="60" y="450" width="40" height="30" as="geometry" />
        </mxCell>
        <mxCell id="cfpsrHQYrtX307XhDK7B-54" value="Ask players name for leaderboards" style="html=1;whiteSpace=wrap;" vertex="1" parent="1c1d494c118603dd-4">
          <mxGeometry x="60" y="500" width="110" height="50" as="geometry" />
        </mxCell>
        <mxCell id="cfpsrHQYrtX307XhDK7B-51" style="edgeStyle=orthogonalEdgeStyle;rounded=0;orthogonalLoop=1;jettySize=auto;html=1;strokeColor=#FF0000;" edge="1" parent="1c1d494c118603dd-1" source="cfpsrHQYrtX307XhDK7B-43" target="cfpsrHQYrtX307XhDK7B-50">
          <mxGeometry relative="1" as="geometry">
            <Array as="points">
              <mxPoint x="280" y="470" />
              <mxPoint x="280" y="485" />
            </Array>
          </mxGeometry>
        </mxCell>
        <mxCell id="cfpsrHQYrtX307XhDK7B-55" style="edgeStyle=orthogonalEdgeStyle;rounded=0;orthogonalLoop=1;jettySize=auto;html=1;exitX=1;exitY=0.75;exitDx=0;exitDy=0;entryX=0;entryY=0.25;entryDx=0;entryDy=0;" edge="1" parent="1c1d494c118603dd-1" source="cfpsrHQYrtX307XhDK7B-50" target="cfpsrHQYrtX307XhDK7B-54">
          <mxGeometry relative="1" as="geometry" />
        </mxCell>
      </root>
    </mxGraphModel>
  </diagram>
</mxfile>
